<?xml version="1.0" standalone="no"?><!DOCTYPE svg PUBLIC "-//W3C//DTD SVG 1.1//EN" "http://www.w3.org/Graphics/SVG/1.1/DTD/svg11.dtd"><svg t="1657078923878" class="icon" viewBox="0 0 2044 1024" version="1.1" xmlns="http://www.w3.org/2000/svg" p-id="1581" xmlns:xlink="http://www.w3.org/1999/xlink" width="399.21875" height="200"><defs><style type="text/css">@font-face { font-family: feedback-iconfont; src: url("//at.alicdn.com/t/font_1031158_u69w8yhxdu.woff2?t=1630033759944") format("woff2"), url("//at.alicdn.com/t/font_1031158_u69w8yhxdu.woff?t=1630033759944") format("woff"), url("//at.alicdn.com/t/font_1031158_u69w8yhxdu.ttf?t=1630033759944") format("truetype"); }
</style></defs><path d="M416.568493 418.317025c122.439139-70.688063 278.994912-28.756164 349.682975 93.682975 0-141.376125-114.623875-256-256-256s-256 114.623875-256 256c0 46.641096 12.474364 90.376517 34.266927 128 0.050098-88.372603 45.989824-174.340509 128.050098-221.682975z" fill="#0FFCE4" p-id="1582"></path><path d="M416.568493 605.682975c70.688063-122.439139 227.243836-164.371037 349.682975-93.682975-70.688063-122.439139-227.243836-164.371037-349.682975-93.682975s-164.371037 227.243836-93.682974 349.682975c23.295499 40.378865 55.959295 71.990607 93.682974 93.733072-44.186301-76.599609-47.392564-173.989824 0-256.050097z" fill="#0FFCE4" p-id="1583"></path><path d="M510.251468 768c0-141.376125 114.623875-256 256-256-122.439139-70.688063-278.994912-28.756164-349.682975 93.682975s-28.756164 278.994912 93.682975 349.682974c40.378865 23.295499 84.464971 34.367123 128 34.317026-76.499413-44.186301-128-126.947945-128-221.682975z" fill="#FFCB01" p-id="1584"></path><path d="M672.568493 861.682975c-70.688063-122.439139-28.756164-278.994912 93.682975-349.682975-141.376125 0-256 114.623875-256 256s114.623875 256 256 256c46.641096 0 90.376517-12.474364 128-34.266928-88.372603-0.050098-174.340509-45.989824-221.682975-128.050097z" fill="#FFCB01" p-id="1585"></path><path d="M859.934442 861.682975c-122.439139-70.688063-164.371037-227.243836-93.682974-349.682975-122.439139 70.688063-164.371037 227.243836-93.682975 349.682975s227.243836 164.371037 349.682975 93.682974c40.378865-23.295499 71.990607-55.959295 93.733072-93.682974-76.599609 44.186301-173.989824 47.392564-256.050098 0z" fill="#FF8D01" p-id="1586"></path><path d="M1022.251468 768c-141.376125 0-256-114.623875-256-256-70.688063 122.439139-28.756164 278.994912 93.682974 349.682975s278.994912 28.756164 349.682975-93.682975c23.295499-40.378865 34.367123-84.464971 34.317025-128-44.186301 76.549511-126.947945 128-221.682974 128z" fill="#FF8D01" p-id="1587"></path><path d="M1115.934442 605.682975c-122.439139 70.688063-278.994912 28.756164-349.682974-93.682975 0 141.376125 114.623875 256 256 256s256-114.623875 256-256c0-46.641096-12.474364-90.376517-34.266928-128-0.050098 88.372603-45.989824 174.340509-128.050098 221.682975z" fill="#F44742" p-id="1588"></path><path d="M1115.934442 418.317025c-70.688063 122.439139-227.243836 164.371037-349.682974 93.682975 70.688063 122.439139 227.243836 164.371037 349.682974 93.682975s164.371037-227.243836 93.682975-349.682975c-23.295499-40.378865-55.959295-71.990607-93.682975-93.733072 44.186301 76.599609 47.392564 173.989824 0 256.050097z" fill="#F44742" p-id="1589"></path><path d="M1022.251468 256c0 141.376125-114.623875 256-256 256 122.439139 70.688063 278.994912 28.756164 349.682974-93.682975s28.756164-278.994912-93.682974-349.682974c-40.378865-23.295499-84.464971-34.367123-128-34.317026C970.750881 78.503327 1022.251468 161.264971 1022.251468 256z" fill="#019FFF" p-id="1590"></path><path d="M859.934442 162.317025c70.688063 122.439139 28.756164 278.994912-93.682974 349.682975 141.376125 0 256-114.623875 256-256s-114.623875-256-256-256c-46.641096 0-90.376517 12.474364-128 34.266928 88.372603 0.050098 174.340509 45.989824 221.682974 128.050097z" fill="#019FFF" p-id="1591"></path><path d="M672.568493 162.317025c122.439139 70.688063 164.371037 227.243836 93.682975 349.682975 122.439139-70.688063 164.371037-227.243836 93.682974-349.682975s-227.243836-164.371037-349.682974-93.682974c-40.378865 23.295499-71.990607 55.959295-93.733073 93.682974 76.599609-44.186301 173.989824-47.392564 256.050098 0z" fill="#00C4B2" p-id="1592"></path><path d="M510.251468 256c141.376125 0 256 114.623875 256 256 70.688063-122.439139 28.756164-278.994912-93.682975-349.682975s-278.994912-28.756164-349.682974 93.682975C299.59002 296.378865 288.518395 340.464971 288.568493 384 332.754795 307.500587 415.516438 256 510.251468 256z" fill="#00C4B2" p-id="1593"></path></svg>